<svg width="1440" height="820" viewBox="0 0 1440 820" fill="none" xmlns="http://www.w3.org/2000/svg">
  <defs>
    <linearGradient id="bg" x1="0" y1="0" x2="1440" y2="820" gradientUnits="userSpaceOnUse">
      <stop stop-color="#07070A"/>
      <stop offset="0.55" stop-color="#0B0B0D"/>
      <stop offset="1" stop-color="#15151A"/>
    </linearGradient>
    <radialGradient id="glow" cx="0" cy="0" r="1" gradientUnits="userSpaceOnUse" gradientTransform="translate(735 430) rotate(90) scale(420 640)">
      <stop stop-color="#C6F24E" stop-opacity="0.24"/>
      <stop offset="0.42" stop-color="#C6F24E" stop-opacity="0.07"/>
      <stop offset="1" stop-color="#C6F24E" stop-opacity="0"/>
    </radialGradient>
    <linearGradient id="screen" x1="0" y1="0" x2="0" y2="620" gradientUnits="userSpaceOnUse">
      <stop stop-color="#101116"/>
      <stop offset="1" stop-color="#050507"/>
    </linearGradient>
    <linearGradient id="glass" x1="0" y1="0" x2="0" y2="420" gradientUnits="userSpaceOnUse">
      <stop stop-color="#FFFFFF" stop-opacity="0.24"/>
      <stop offset="1" stop-color="#FFFFFF" stop-opacity="0.06"/>
    </linearGradient>
    <linearGradient id="road" x1="0" y1="0" x2="1" y2="1">
      <stop stop-color="#5F6872"/>
      <stop offset="0.5" stop-color="#202229"/>
      <stop offset="1" stop-color="#07080A"/>
    </linearGradient>
    <filter id="shadow" x="-30%" y="-20%" width="160%" height="150%" color-interpolation-filters="sRGB">
      <feDropShadow dx="0" dy="34" stdDeviation="34" flood-color="#000000" flood-opacity="0.55"/>
    </filter>
    <filter id="softShadow" x="-30%" y="-20%" width="160%" height="150%" color-interpolation-filters="sRGB">
      <feDropShadow dx="0" dy="24" stdDeviation="22" flood-color="#000000" flood-opacity="0.42"/>
    </filter>
    <clipPath id="phoneClipA">
      <rect x="104" y="157" width="300" height="606" rx="44"/>
    </clipPath>
    <clipPath id="phoneClipB">
      <rect x="520" y="93" width="400" height="694" rx="52"/>
    </clipPath>
    <clipPath id="phoneClipC">
      <rect x="1038" y="157" width="300" height="606" rx="44"/>
    </clipPath>
    <clipPath id="cardClip">
      <rect x="552" y="196" width="336" height="430" rx="34"/>
    </clipPath>
  </defs>

  <rect width="1440" height="820" fill="url(#bg)"/>
  <rect width="1440" height="820" fill="url(#glow)"/>
  <path d="M64 710C260 548 431 507 627 592C823 677 1052 725 1368 587" stroke="#C6F24E" stroke-opacity="0.08" stroke-width="2"/>
  <path d="M16 142C247 64 502 85 754 166C1011 249 1194 244 1404 137" stroke="#FFFFFF" stroke-opacity="0.05" stroke-width="2"/>

  <text x="92" y="82" fill="#F4F4F5" font-family="Inter, Arial, sans-serif" font-size="36" font-weight="800">Auto Swipe Luxury</text>
  <text x="92" y="120" fill="#9A9AA2" font-family="Inter, Arial, sans-serif" font-size="18" font-weight="600">Premium car swipe marketplace</text>
  <rect x="1158" y="78" width="190" height="44" rx="22" fill="#C6F24E"/>
  <text x="1198" y="107" fill="#0B0B0D" font-family="Inter, Arial, sans-serif" font-size="16" font-weight="800">Version 2.0</text>

  <!-- Onboarding phone -->
  <g filter="url(#softShadow)">
    <rect x="92" y="145" width="324" height="630" rx="56" fill="#050506"/>
    <rect x="104" y="157" width="300" height="606" rx="44" fill="url(#screen)"/>
    <g clip-path="url(#phoneClipA)">
      <circle cx="325" cy="280" r="150" fill="#C6F24E" fill-opacity="0.08"/>
      <text x="132" y="214" fill="#F4F4F5" font-family="Inter, Arial, sans-serif" font-size="15" font-weight="800" letter-spacing="1.4">PREMIUM SWIPE</text>
      <text x="132" y="292" fill="#FFFFFF" font-family="Inter, Arial, sans-serif" font-size="38" font-weight="900">Find your</text>
      <text x="132" y="337" fill="#FFFFFF" font-family="Inter, Arial, sans-serif" font-size="38" font-weight="900">perfect car</text>
      <text x="132" y="382" fill="#9A9AA2" font-family="Inter, Arial, sans-serif" font-size="18" font-weight="650">Swipe right for love,</text>
      <text x="132" y="408" fill="#9A9AA2" font-family="Inter, Arial, sans-serif" font-size="18" font-weight="650">left for pass</text>
      <path d="M72 593C119 521 198 486 307 489C391 491 442 525 466 570L442 642H78L72 593Z" fill="#2B3038"/>
      <path d="M92 579C145 533 221 514 306 520C362 524 400 545 428 578" stroke="#77818D" stroke-width="5" stroke-linecap="round"/>
      <path d="M158 571C187 546 219 534 258 535L271 584L135 584C140 579 147 575 158 571Z" fill="#101319"/>
      <path d="M292 535C342 538 379 552 406 579L292 584L292 535Z" fill="#11151B"/>
      <rect x="230" y="602" width="146" height="9" rx="4.5" fill="#C6F24E"/>
      <rect x="136" y="676" width="236" height="54" rx="18" fill="#FFFFFF"/>
      <text x="203" y="710" fill="#0B0B0D" font-family="Inter, Arial, sans-serif" font-size="15" font-weight="850">Get started</text>
      <rect x="202" y="744" width="102" height="5" rx="2.5" fill="#FFFFFF" fill-opacity="0.8"/>
    </g>
  </g>

  <!-- Discover phone -->
  <g filter="url(#shadow)">
    <rect x="504" y="76" width="432" height="728" rx="66" fill="#050506"/>
    <rect x="520" y="93" width="400" height="694" rx="52" fill="url(#screen)"/>
    <g clip-path="url(#phoneClipB)">
      <circle cx="730" cy="420" r="270" fill="#C6F24E" fill-opacity="0.08"/>
      <text x="677" y="156" fill="#F4F4F5" font-family="Inter, Arial, sans-serif" font-size="24" font-weight="900">Discover</text>
      <g transform="translate(832 138)" stroke="#F4F4F5" stroke-width="2" stroke-linecap="round">
        <path d="M0 5H28"/>
        <path d="M0 17H28"/>
        <circle cx="9" cy="5" r="3" fill="#0B0B0D"/>
        <circle cx="20" cy="17" r="3" fill="#0B0B0D"/>
      </g>
      <rect x="552" y="196" width="336" height="430" rx="34" fill="url(#glass)" stroke="#FFFFFF" stroke-opacity="0.12"/>
      <g clip-path="url(#cardClip)">
        <rect x="552" y="196" width="336" height="430" fill="url(#road)"/>
        <circle cx="826" cy="260" r="130" fill="#FFFFFF" fill-opacity="0.1"/>
        <path d="M548 498C635 405 749 362 908 376V626H548V498Z" fill="#14161D"/>
        <path d="M589 470C642 413 718 386 804 397C843 402 877 420 899 451" stroke="#B6BEC7" stroke-width="7" stroke-linecap="round"/>
        <path d="M625 459C655 424 701 410 755 412L764 471H600C607 466 615 462 625 459Z" fill="#161B22"/>
        <path d="M770 413C819 419 858 433 883 458L786 471L770 413Z" fill="#10141A"/>
        <circle cx="649" cy="518" r="33" fill="#090A0D" stroke="#3B424B" stroke-width="8"/>
        <circle cx="825" cy="518" r="33" fill="#090A0D" stroke="#3B424B" stroke-width="8"/>
        <rect x="552" y="196" width="336" height="430" fill="url(#glass)" opacity="0.35"/>
      </g>
      <text x="584" y="259" fill="#FFFFFF" font-family="Inter, Arial, sans-serif" font-size="36" font-weight="900">Porsche 911</text>
      <text x="584" y="304" fill="#D5D9DF" font-family="Inter, Arial, sans-serif" font-size="18" font-weight="750">2022  -  12 000 km</text>
      <text x="584" y="332" fill="#D5D9DF" font-family="Inter, Arial, sans-serif" font-size="18" font-weight="750">3.0 Turbo  -  450 HP</text>
      <rect x="766" y="576" width="78" height="30" rx="15" fill="#FFFFFF" fill-opacity="0.14"/>
      <text x="789" y="596" fill="#F4F4F5" font-family="Inter, Arial, sans-serif" font-size="13" font-weight="850">1/24</text>
      <circle cx="646" cy="689" r="46" fill="#1E1E23"/>
      <path d="M628 671L664 707M664 671L628 707" stroke="#FFFFFF" stroke-width="4" stroke-linecap="round"/>
      <circle cx="794" cy="689" r="46" fill="#FFFFFF"/>
      <path d="M794 711C790 705 766 690 772 674C776 663 789 662 794 671C799 662 812 663 816 674C822 690 798 705 794 711Z" fill="#C6F24E"/>
      <rect x="565" y="740" width="310" height="72" rx="28" fill="#FFFFFF" fill-opacity="0.08"/>
      <circle cx="628" cy="774" r="15" fill="#C6F24E"/>
      <circle cx="720" cy="774" r="15" stroke="#8E8E96" stroke-width="3"/>
      <circle cx="812" cy="774" r="15" stroke="#8E8E96" stroke-width="3"/>
    </g>
  </g>

  <!-- Garage phone -->
  <g filter="url(#softShadow)">
    <rect x="1026" y="145" width="324" height="630" rx="56" fill="#050506"/>
    <rect x="1038" y="157" width="300" height="606" rx="44" fill="url(#screen)"/>
    <g clip-path="url(#phoneClipC)">
      <circle cx="1090" cy="260" r="160" fill="#C6F24E" fill-opacity="0.08"/>
      <text x="1066" y="224" fill="#FFFFFF" font-family="Inter, Arial, sans-serif" font-size="30" font-weight="900">Garage</text>
      <text x="1296" y="222" fill="#FFFFFF" font-family="Inter, Arial, sans-serif" font-size="30" font-weight="500">+</text>
      <text x="1066" y="275" fill="#FFFFFF" font-family="Inter, Arial, sans-serif" font-size="15" font-weight="850">All cars</text>
      <text x="1138" y="275" fill="#777982" font-family="Inter, Arial, sans-serif" font-size="15" font-weight="750">Favorites</text>
      <rect x="1066" y="284" width="50" height="4" rx="2" fill="#C6F24E"/>
      <g>
        <rect x="1066" y="316" width="72" height="68" rx="12" fill="#30343A"/>
        <path d="M1072 358C1087 335 1117 331 1138 346V384H1072V358Z" fill="#111319"/>
        <path d="M1081 350C1095 338 1115 335 1130 348" stroke="#C9D0D8" stroke-width="3" stroke-linecap="round"/>
        <text x="1154" y="340" fill="#FFFFFF" font-family="Inter, Arial, sans-serif" font-size="15" font-weight="900">Porsche 911</text>
        <text x="1154" y="364" fill="#8F9299" font-family="Inter, Arial, sans-serif" font-size="13" font-weight="650">2022 - 12 000 km</text>
        <text x="1154" y="384" fill="#8F9299" font-family="Inter, Arial, sans-serif" font-size="13" font-weight="650">3.0 Turbo - 450 HP</text>
        <path d="M1294 366C1291 361 1278 353 1281 345C1284 339 1291 339 1294 344C1298 339 1305 339 1308 345C1311 353 1298 361 1294 366Z" fill="#C6F24E"/>
      </g>
      <g opacity="0.94">
        <rect x="1066" y="414" width="72" height="68" rx="12" fill="#262A30"/>
        <path d="M1071 455C1088 437 1113 430 1138 445V482H1071V455Z" fill="#0E1014"/>
        <path d="M1080 447C1094 435 1115 434 1130 447" stroke="#B7BEC7" stroke-width="3" stroke-linecap="round"/>
        <text x="1154" y="438" fill="#FFFFFF" font-family="Inter, Arial, sans-serif" font-size="15" font-weight="900">AMG GT 63</text>
        <text x="1154" y="462" fill="#8F9299" font-family="Inter, Arial, sans-serif" font-size="13" font-weight="650">2022 - 9 500 km</text>
        <text x="1154" y="482" fill="#8F9299" font-family="Inter, Arial, sans-serif" font-size="13" font-weight="650">4.0 V8 - 639 HP</text>
        <path d="M1281 449C1284 439 1293 443 1294 449C1297 443 1306 439 1309 449C1312 460 1294 470 1294 470C1294 470 1278 460 1281 449Z" stroke="#777982" stroke-width="2" fill="none"/>
      </g>
      <g opacity="0.86">
        <rect x="1066" y="512" width="72" height="68" rx="12" fill="#2C3036"/>
        <path d="M1071 552C1090 533 1115 530 1138 544V580H1071V552Z" fill="#111319"/>
        <path d="M1080 545C1096 534 1118 533 1130 545" stroke="#C6F24E" stroke-width="3" stroke-linecap="round"/>
        <text x="1154" y="536" fill="#FFFFFF" font-family="Inter, Arial, sans-serif" font-size="15" font-weight="900">Audi RS6</text>
        <text x="1154" y="560" fill="#8F9299" font-family="Inter, Arial, sans-serif" font-size="13" font-weight="650">2021 - 22 000 km</text>
        <text x="1154" y="580" fill="#8F9299" font-family="Inter, Arial, sans-serif" font-size="13" font-weight="650">4.0 V8 - 600 HP</text>
      </g>
      <rect x="1070" y="724" width="236" height="5" rx="2.5" fill="#FFFFFF" fill-opacity="0.8"/>
    </g>
  </g>
</svg>
